<svg xmlns="http://www.w3.org/2000/svg" viewBox="0 0 1280 640" width="1280" height="640" role="img" aria-label="WorkflowCanvas project card"><title>WorkflowCanvas — DUNG30N5 × NOAERTH</title><rect width="1280" height="640" fill="#0a0d12"/><rect x="886" y="396" width="46" height="38" rx="5" fill="mint" fill-opacity="0.08" stroke="mint" stroke-width="1.1" stroke-opacity="0.4"/><rect x="944" y="396" width="46" height="38" rx="5" fill="mint" fill-opacity="0.08" stroke="mint" stroke-width="1.1" stroke-opacity="0.4"/><rect x="1002" y="396" width="46" height="38" rx="5" fill="mint" fill-opacity="0.08" stroke="mint" stroke-width="1.1" stroke-opacity="0.4"/><rect x="1060" y="396" width="46" height="38" rx="5" fill="mint" fill-opacity="0.08" stroke="mint" stroke-width="1.1" stroke-opacity="0.4"/><rect x="913" y="350" width="46" height="38" rx="5" fill="mint" fill-opacity="0.08" stroke="mint" stroke-width="1.1" stroke-opacity="0.4"/><rect x="971" y="350" width="46" height="38" rx="5" fill="mint" fill-opacity="0.08" stroke="mint" stroke-width="1.1" stroke-opacity="0.4"/><rect x="1029" y="350" width="46" height="38" rx="5" fill="mint" fill-opacity="0.08" stroke="mint" stroke-width="1.1" stroke-opacity="0.4"/><rect x="1087" y="350" width="46" height="38" rx="5" fill="mint" fill-opacity="0.08" stroke="mint" stroke-width="1.1" stroke-opacity="0.4"/><rect x="886" y="304" width="46" height="38" rx="5" fill="mint" fill-opacity="0.08" stroke="mint" stroke-width="1.1" stroke-opacity="0.4"/><rect x="944" y="304" width="46" height="38" rx="5" fill="mint" fill-opacity="0.08" stroke="mint" stroke-width="1.1" stroke-opacity="0.4"/><rect x="1002" y="304" width="46" height="38" rx="5" fill="mint" fill-opacity="0.08" stroke="mint" stroke-width="1.1" stroke-opacity="0.4"/><rect x="1060" y="304" width="46" height="38" rx="5" fill="mint" fill-opacity="0.08" stroke="mint" stroke-width="1.1" stroke-opacity="0.4"/><rect x="913" y="258" width="46" height="38" rx="5" fill="mint" fill-opacity="0.08" stroke="mint" stroke-width="1.1" stroke-opacity="0.4"/><rect x="971" y="258" width="46" height="38" rx="5" fill="mint" fill-opacity="0.08" stroke="mint" stroke-width="1.1" stroke-opacity="0.4"/><rect x="1029" y="258" width="46" height="38" rx="5" fill="mint" fill-opacity="0.08" stroke="mint" stroke-width="1.1" stroke-opacity="0.4"/><rect x="1087" y="258" width="46" height="38" rx="5" fill="mint" fill-opacity="0.08" stroke="mint" stroke-width="1.1" stroke-opacity="0.4"/><rect x="80" y="150" width="10" height="240" rx="4" fill="mint" opacity="0.9"/><text x="130" y="230" font-family="ui-monospace, SFMono-Regular, Menlo, Monaco, Consolas, 'Liberation Mono', monospace" font-size="22" letter-spacing="5" fill="#f4efe44f">DUNG30N5 × NOAERTH</text><text x="130" y="330" font-family="-apple-system, BlinkMacSystemFont, 'Segoe UI', Inter, Helvetica, Arial, sans-serif" font-size="82" font-weight="700" fill="#f4efe4">WorkflowCanvas</text><text x="130" y="384" font-family="-apple-system, BlinkMacSystemFont, 'Segoe UI', Inter, Helvetica, Arial, sans-serif" font-size="27" fill="#f4efe4a8">a composed surface meant to be read by a person</text><text x="130" y="470" font-family="ui-monospace, SFMono-Regular, Menlo, Monaco, Consolas, 'Liberation Mono', monospace" font-size="18" fill="mint" letter-spacing="3">CREATIVE · type rail · V6</text></svg>